<?xml version="1.0" encoding="UTF-8"?>
<svg id="Camada_1" data-name="Camada 1" xmlns="http://www.w3.org/2000/svg" viewBox="0 0 512 512">
  <path d="M285.06,412.61c-4.95-17.04-9.37-32.33-14.49-50.11-8.06,18.03-15.02,33.62-22.39,50.11h36.89ZM303.85,279.97c-14.61-6.82-35.08-12.2-36.35-20.34-1.8,26.5,7.21,41.97,17.03,62.56,6.67-14.68,12.69-27.83,19.32-42.22h0ZM244.16,414.18c7.61-17.41,14.12-33.2,21.41-48.63,6.22-13.19.98-24.35-5.08-35.31-1.6-2.89-5.81-4.3-8.27-6.04-10.4,20.05-20.02,38.74-29.84,57.35-6.59,12.49-6.35,21.09,3.73,28.12,4.87,3.39,16.05.37,18.05,4.51h0ZM133.88,413.11c16.13,0,38.56-.12,54.08.08,5.08.08.98-.87,2.99-6.53,5.98-16.7,12.69-33.08,19.69-49.37,2.58-6.08,7.12-11.29,10.03-17.28,9.05-18.73,6.67-41.55,5.08-61.36-2.74,1.53-2.91,2.4-7.04,2.44-23.95.21-34.43-20.01-30.7-43,1.15-7.03,4.95-34.61,5.85-41.72-.74-3.23-5.44,1.53-5.32-1.7,5.94-21.71,44.25-18.94,46.59-7.86,1.56,1.49,2.99,3.97,4.67,4.22,1.97.25,3.03.04,5.12-.62,1.35-.41,1.76-6.74,1.19-10.3-.2-1.16-.37-2.44-.78-3.56-7.21-20.34,3.15-21.91,17.23-24.85,9.05-1.9,11.83,1.82,13.51,11,.08.58.61,1.2.41,1.78-.57,1.65-.86,3.35,0,4.34,3.23,4.01,5.77,7.07.12,7.69-1.8.21,3.85,10.25-.29,11.16-7.33,2.44-10.56-1.74-10.23,2.15.12,1.7,4.59,3.27,5.61,6.53,3.52,11.12,4.91,28.65,5.36,40.31.37,8.56,2.42,14.97,9.05,19.72,6.71,4.8,13.84,9.1,21.57,14.14,5.44-11.33,9.25-23.36,14.25-29.69.61-.79,2.58.21,3.52.58,7.49,1.49-3.48,7.24-13.14,28.08.57,4.3,6.02,2.69,4.63,5.25,1.39,2.27-5.65,9.34-9.91,9.22-9.54,12.16-12.24,28.12-19.73,41.18-.78,1.41.29,3.97.7,5.95,3.77,19.81,7.94,39.57,11.18,59.46.82,5.17,1.68,8.77,6.96,10.21,5.85,1.53,11.63,3.47,17.52,4.84,4.13.95,8.92-.87,10.85,5.83.45,1.61,8.23.83,12.49,1.78,2.74.58,8.06-.62,7.78,3.64,1.84,4.18-4.95,3.97-7.49,3.97-69.02.25-138.04.17-207.11.21-4.87,0-8.64-.54-6.26-7.94h0Z" style="fill: #fff; stroke-width: 0px;"/>
  <path d="M255.67,59.95v-12.98c-6.8,0-15.47-.21-24.97-.21h-.04c-35.78,0-82.94,2.77-82,29.03h0C156.35,285.92,10.57,380.73,10.57,380.73h0s2.13,81.7,144.39,84.27l44.95-163.82c-48.55-22.04-29.97-187.64-23.91-225.39h0c2.21-13.81,79.67-15.84,79.67-15.84h0Z" style="fill: #fff; fill-rule: evenodd; stroke-width: 0px;"/>
  <path d="M280.6,46.76c-9.5,0-18.18.21-24.93.21h0v12.98s77.41,2.03,79.62,15.84h0c6.06,37.75,24.64,203.35-23.87,225.39h0l44.91,163.82c142.26-2.56,144.39-84.27,144.39-84.27,0,0-145.78-94.81-138.08-304.94h0c.94-26.26-46.22-29.03-82-29.03h-.04Z" style="fill: #fff; fill-rule: evenodd; stroke-width: 0px;"/>
  <path d="M255.71,63.84h-.12c-14.21,0-41.35,3.43-58.05,8.1h0c-16.46,4.67-16.91,11.87-17.64,16.04h0c-.74,4.22-6.63,61.44-6.63,61.44h0c6.3-1.28,9.05-16.75,11.5-31.55h0c7.45-3.27,35.86-14.51,71.19-14.64h0c35.66-.08,63.9,13.07,70.95,16.66h0c1.15,4.88,2.42,9.39,3.77,12.78h0c5.9,14.64,7.37,13.27,7.37,13.27,0,0-6.63-57.97-7.37-61.44h0c-.74-3.47-3.44-10.09-21.86-14.31h0c-16.01-3.64-39.22-6.37-53.1-6.37h0Z" style="fill: #fff; fill-rule: evenodd; stroke-width: 0px;"/>
</svg>