<?xml version="1.0" encoding="UTF-8"?>
<svg id="Camada_1" data-name="Camada 1" xmlns="http://www.w3.org/2000/svg" viewBox="0 0 787.59 165">
  <path d="M102.76,138.52c-1.77-6.09-3.35-11.56-5.18-17.91-2.88,6.44-5.37,12.02-8,17.91h13.18ZM109.47,91.11c-5.22-2.44-12.54-4.36-12.99-7.27-.64,9.47,2.58,15,6.09,22.36,2.39-5.25,4.54-9.95,6.91-15.09h0ZM88.14,139.08c2.72-6.22,5.05-11.87,7.65-17.38,2.22-4.71.35-8.7-1.81-12.62-.57-1.03-2.08-1.54-2.96-2.16-3.72,7.17-7.16,13.85-10.67,20.5-2.36,4.46-2.27,7.54,1.33,10.05,1.74,1.21,5.74.13,6.45,1.61h0ZM48.72,138.7c5.77,0,13.78-.04,19.33.03,1.81.03.35-.31,1.07-2.34,2.14-5.97,4.54-11.82,7.04-17.65.92-2.17,2.55-4.03,3.58-6.18,3.23-6.69,2.39-14.85,1.81-21.93-.98.55-1.04.86-2.52.87-8.56.07-12.31-7.15-10.97-15.37.41-2.51,1.77-12.37,2.09-14.91-.26-1.15-1.95.55-1.9-.61,2.12-7.76,15.82-6.77,16.65-2.81.56.53,1.07,1.42,1.67,1.51.7.09,1.08.01,1.83-.22.48-.15.63-2.41.42-3.68-.07-.41-.13-.87-.28-1.27-2.58-7.27,1.13-7.83,6.16-8.88,3.23-.68,4.23.65,4.83,3.93.03.21.22.43.15.64-.2.59-.31,1.2,0,1.55,1.16,1.43,2.06,2.53.04,2.75-.64.07,1.38,3.67-.1,3.99-2.62.87-3.78-.62-3.66.77.04.61,1.64,1.17,2,2.34,1.26,3.98,1.76,10.24,1.92,14.41.13,3.06.86,5.35,3.23,7.05,2.4,1.71,4.95,3.25,7.71,5.05,1.95-4.05,3.31-8.35,5.09-10.61.22-.28.92.07,1.26.21,2.68.53-1.24,2.59-4.7,10.03.2,1.54,2.15.96,1.65,1.88.5.81-2.02,3.34-3.54,3.3-3.41,4.34-4.37,10.05-7.05,14.72-.28.5.1,1.42.25,2.13,1.35,7.08,2.84,14.14,3.99,21.25.29,1.85.6,3.13,2.49,3.65,2.09.55,4.16,1.24,6.26,1.73,1.48.34,3.19-.31,3.88,2.08.16.58,2.94.3,4.46.64.98.21,2.88-.22,2.78,1.3.66,1.49-1.77,1.42-2.68,1.42-24.67.09-49.34.06-74.02.07-1.74,0-3.09-.19-2.24-2.84h0Z" style="stroke-width: 0px;"/>
  <path d="M92.25,12.47v-4.64c-2.43,0-5.53-.07-8.93-.07h-.01c-12.79,0-29.64.99-29.31,10.37h0C56.75,93.24,4.65,127.12,4.65,127.12h0s.76,29.2,51.61,30.12l16.07-58.55c-17.35-7.88-10.71-67.07-8.55-80.56h0c.79-4.94,28.47-5.66,28.47-5.66h0Z" style="fill-rule: evenodd; stroke-width: 0px;"/>
  <path d="M101.16,7.76c-3.39,0-6.5.07-8.91.07h0v4.64s27.67.72,28.46,5.66h0c2.17,13.49,8.81,72.68-8.53,80.56h0l16.05,58.55c50.85-.92,51.61-30.12,51.61-30.12,0,0-52.1-33.89-49.35-108.99h0c.34-9.38-16.52-10.37-29.31-10.37h-.01Z" style="fill-rule: evenodd; stroke-width: 0px;"/>
  <path d="M92.26,13.86h-.04c-5.08,0-14.78,1.23-20.75,2.9h0c-5.88,1.67-6.04,4.24-6.31,5.73h0c-.26,1.51-2.37,21.96-2.37,21.96h0c2.25-.46,3.23-5.99,4.11-11.28h0c2.66-1.17,12.82-5.19,25.45-5.23h0c12.74-.03,22.84,4.67,25.36,5.96h0c.41,1.74.86,3.35,1.35,4.57h0c2.11,5.23,2.63,4.74,2.63,4.74,0,0-2.37-20.72-2.63-21.96h0c-.26-1.24-1.23-3.61-7.81-5.11h0c-5.72-1.3-14.02-2.28-18.98-2.28h0Z" style="fill-rule: evenodd; stroke-width: 0px;"/>
  <path d="M227.82,32.13c-1.51-.67-3.41-.99-5.72-.99-1.1,0-1.77.1-2.02.33-.25.22-.38.71-.38,1.45v14.04c.95.09,1.58.13,1.89.15.28.03.57.03.85.03,2.44,0,4.36-.35,5.77-1.05,2.56-1.27,3.83-3.68,3.83-7.17,0-3.3-1.4-5.56-4.21-6.78h0ZM209.83,63.74c2.03-.21,3.31-.61,3.8-1.23.5-.62.76-2.02.76-4.24v-23.31c0-1.88-.28-3.1-.86-3.71-.56-.59-1.79-.98-3.7-1.12v-1h14.06c4.51,0,7.96.89,10.34,2.66,2.4,1.77,3.58,4.09,3.58,6.98,0,3.67-1.33,6.33-3.98,7.97-2.65,1.66-5.97,2.47-9.95,2.47-.57,0-1.32,0-2.21-.03-.89-.03-1.55-.04-1.99-.04v9.78c0,2.01.32,3.28.92,3.8.63.53,1.99.87,4.13,1.03v.99h-14.91v-.99Z" style="stroke-width: 0px;"/>
  <path d="M252.53,63.74c1.95-.22,3.22-.58,3.8-1.06.59-.49.88-1.76.88-3.78v-23.93c0-1.91-.29-3.16-.86-3.74-.57-.59-1.84-.96-3.82-1.09v-1h28.28l.19,7.7h-1.36c-.44-2.36-1.11-3.9-2.02-4.6-.91-.69-2.91-1.05-6.04-1.05h-7.24c-.79,0-1.27.12-1.45.38-.18.25-.28.72-.28,1.43v12h8.22c2.27,0,3.72-.34,4.35-1.02.61-.68,1.13-2.04,1.51-4.12h1.24v12.43h-1.24c-.4-2.08-.91-3.47-1.54-4.14-.63-.69-2.06-1.02-4.32-1.02h-8.22v13.32c0,1.08.34,1.7,1.01,1.91.66.18,2.68.28,6,.28,3.61,0,6.28-.4,8-1.2,1.71-.8,3.25-2.73,4.64-5.79h1.46l-2.41,9.09h-28.78v-.99Z" style="stroke-width: 0px;"/>
  <path d="M316.59,45.09c2.82-1.18,4.23-3.38,4.23-6.62s-1.26-5.23-3.79-6.37c-1.35-.61-3.15-.92-5.38-.92-1.51,0-2.43.1-2.77.34-.34.21-.51.72-.51,1.52v13.26c3.83-.15,6.57-.55,8.22-1.21h0ZM298.37,63.74c2.06-.19,3.32-.59,3.83-1.21.5-.61.76-2.04.76-4.26v-23.31c0-1.89-.29-3.12-.85-3.71-.57-.59-1.81-.98-3.75-1.12v-1h14.75c3.07,0,5.63.4,7.68,1.18,3.88,1.49,5.82,4.24,5.82,8.22,0,2.67-.86,4.73-2.59,6.16-1.73,1.43-4.07,2.38-7.04,2.84l10.97,13.66c.69.83,1.36,1.43,2.03,1.82.67.38,1.55.64,2.6.74v.99h-8.57l-13.33-16.57-2.34.12v10.61c0,2,.31,3.25.91,3.78.6.52,1.9.89,3.91,1.06v.99h-14.81v-.99Z" style="stroke-width: 0px;"/>
  <path d="M347.23,63.74c1.95-.22,3.23-.58,3.8-1.06.59-.49.88-1.76.88-3.78v-23.93c0-1.91-.28-3.16-.86-3.74-.57-.59-1.84-.96-3.82-1.09v-1h28.3l.18,7.7h-1.35c-.45-2.36-1.13-3.9-2.02-4.6-.92-.69-2.93-1.05-6.04-1.05h-7.24c-.79,0-1.27.12-1.46.38-.18.25-.26.72-.26,1.43v12h8.22c2.25,0,3.7-.34,4.33-1.02.63-.68,1.13-2.04,1.52-4.12h1.24v12.43h-1.24c-.41-2.08-.92-3.47-1.55-4.14-.61-.69-2.06-1.02-4.3-1.02h-8.22v13.32c0,1.08.32,1.7.99,1.91.66.18,2.68.28,6,.28,3.61,0,6.28-.4,8.02-1.2,1.7-.8,3.25-2.73,4.62-5.79h1.48l-2.41,9.09h-28.8v-.99Z" style="stroke-width: 0px;"/>
  <path d="M418.3,29.36c1.99.59,3.13.87,3.42.87.76,0,1.3-.15,1.62-.44.32-.3.6-.72.82-1.29h1.17l.42,11.32h-1.23c-1.1-2.6-2.21-4.57-3.38-5.84-2.09-2.23-4.83-3.35-8.19-3.35s-6.42,1.32-9.01,3.93c-2.59,2.6-3.89,6.92-3.89,12.93,0,4.95,1.3,8.82,3.88,11.62,2.59,2.78,5.78,4.17,9.57,4.17.64,0,1.4-.06,2.27-.18.88-.12,1.7-.31,2.47-.58,1.26-.43,2.05-.78,2.36-1.09.32-.31.48-.75.48-1.34v-8.57c0-2.08-.29-3.37-.88-3.89-.59-.5-1.86-.83-3.82-.95v-.99h13.59v.99c-1.33.09-2.19.3-2.63.65-.72.56-1.08,1.73-1.08,3.47v10.58c0,.64-1.55,1.48-4.59,2.53-3.06,1.05-6.01,1.58-8.84,1.58-5.19,0-9.58-1.54-13.15-4.61-3.94-3.37-5.91-7.91-5.91-13.6,0-5.01,1.58-9.3,4.71-12.87,3.45-3.95,8.02-5.91,13.72-5.91,2.08,0,4.1.28,6.1.86h0Z" style="stroke-width: 0px;"/>
  <path d="M463.07,45.09c2.84-1.18,4.26-3.38,4.26-6.62s-1.27-5.23-3.8-6.37c-1.36-.61-3.16-.92-5.38-.92-1.51,0-2.44.1-2.77.34-.34.21-.51.72-.51,1.52v13.26c3.82-.15,6.57-.55,8.21-1.21h0ZM444.88,63.74c2.03-.19,3.31-.59,3.82-1.21.48-.61.75-2.04.75-4.26v-23.31c0-1.89-.29-3.12-.85-3.71-.56-.59-1.81-.98-3.72-1.12v-1h14.73c3.07,0,5.62.4,7.67,1.18,3.89,1.49,5.82,4.24,5.82,8.22,0,2.67-.85,4.73-2.58,6.16-1.74,1.43-4.07,2.38-7.04,2.84l10.97,13.66c.67.83,1.35,1.43,2.03,1.82.67.38,1.54.64,2.59.74v.99h-8.57l-13.32-16.57-2.34.12v10.61c0,2,.29,3.25.89,3.78.6.52,1.9.89,3.92,1.06v.99h-14.79v-.99Z" style="stroke-width: 0px;"/>
  <path d="M493.97,63.74c2.17-.16,3.57-.49,4.21-.99.64-.49.97-1.79.97-3.86v-23.93c0-1.98-.32-3.25-.97-3.83-.64-.56-2.05-.9-4.21-1v-1h15.77v1c-2.17.1-3.57.44-4.21,1-.64.58-.97,1.85-.97,3.83v23.93c0,2.07.32,3.37.97,3.86.64.5,2.05.83,4.21.99v.99h-15.77v-.99Z" style="stroke-width: 0px;"/>
  <path d="M524.77,63.74c2.21-.24,3.61-.74,4.24-1.52.63-.77.94-2.57.94-5.42v-23.7l-.73-.86c-.78-.93-1.43-1.51-1.99-1.71-.54-.22-1.36-.35-2.46-.38v-1h9.09l20.56,25.74v-17.88c0-2.93-.42-4.85-1.29-5.75-.57-.56-1.84-.93-3.8-1.11v-1h12.51v1c-2.03.21-3.38.71-4.05,1.49-.67.8-1.02,2.59-1.02,5.41v28.33h-.91l-23.56-29.51v20.94c0,2.96.42,4.86,1.27,5.76.56.58,1.79.96,3.72,1.18v.99h-12.51v-.99Z" style="stroke-width: 0px;"/>
  <path d="M599.69,50.91l-6.1-14.82-6.13,14.82h12.23ZM576.75,64.73v-.99c1.36-.16,2.4-.69,3.09-1.57.67-.89,1.86-3.31,3.53-7.27l11.09-26.39h1.05l13.27,30.5c.89,2.02,1.59,3.27,2.12,3.74.53.49,1.42.81,2.66.99v.99h-13.53v-.99c1.55-.15,2.55-.33,3-.52.47-.21.69-.69.69-1.48,0-.25-.09-.71-.26-1.37-.18-.67-.42-1.37-.73-2.1l-2.14-5.17h-14.03c-1.39,3.52-2.21,5.66-2.49,6.43-.26.78-.4,1.39-.4,1.85,0,.92.37,1.54,1.08,1.89.45.21,1.3.35,2.55.47v.99h-10.55Z" style="stroke-width: 0px;"/>
  <path d="M653.71,29.36c2.06.59,3.2.87,3.45.87.51,0,.98-.13,1.45-.41.45-.28.76-.72.95-1.32h1.11l.5,12.09h-1.23c-.73-2.41-1.67-4.34-2.82-5.82-2.22-2.76-5.21-4.14-8.95-4.14s-6.88,1.49-9.29,4.45c-2.4,3-3.61,7.09-3.61,12.31,0,4.8,1.27,8.63,3.79,11.48,2.53,2.87,5.74,4.3,9.6,4.3,2.79,0,5.38-.67,7.74-2,1.36-.75,2.84-1.89,4.46-3.41l1,.99c-1.2,1.52-2.68,2.84-4.45,3.98-3.03,1.92-6.29,2.88-9.8,2.88-.66,0-1.26-.01-1.77-.04l-1.11,2.73c.34-.07.63-.13.86-.16.23-.03.5-.06.76-.06,1.33,0,2.4.35,3.2,1.06.8.69,1.2,1.6,1.2,2.7,0,1.29-.56,2.35-1.67,3.24-1.1.86-2.81,1.3-5.12,1.3-.44,0-.95-.03-1.52-.12-1.02-.15-1.99-.4-2.9-.75l.75-1.67.83.24c.2.07.54.15,1.02.24.5.07.98.13,1.48.13.78,0,1.39-.1,1.84-.28.88-.34,1.3-.99,1.3-1.97,0-.68-.22-1.21-.66-1.55-.45-.34-1.01-.52-1.7-.52-.54,0-.92.03-1.19.07-.25.04-.54.1-.88.19l-.37-.31,1.89-4.71c-4.57-.49-8.16-2.35-10.81-5.57-2.65-3.24-3.98-7.42-3.98-12.52s1.67-9.64,4.97-13.2c3.51-3.72,8.05-5.59,13.67-5.59,1.93,0,3.94.28,6,.86h0Z" style="stroke-width: 0px;"/>
  <path d="M700.31,50.91l-6.1-14.82-6.13,14.82h12.23ZM697.27,20.72c.61.31,1.1.52,1.48.62.37.12.73.18,1.08.18.88,0,1.59-.34,2.18-1,.38-.41.67-.98.88-1.67h3.01c-.09.93-.5,1.92-1.19,2.94-1.26,1.82-3.09,2.73-5.49,2.73-.85,0-1.64-.12-2.39-.31-.73-.22-1.49-.53-2.28-.93l-1.21-.64c-.31-.13-.63-.27-1.01-.37-.37-.12-.72-.18-1.02-.18-.88,0-1.58.3-2.11.89-.28.34-.54.84-.8,1.54h-1.61c.44-1.88,1.2-3.25,2.24-4.12s2.17-1.3,3.39-1.3c.59,0,1.16.09,1.71.27.56.15,1.19.4,1.86.74l1.27.62ZM677.39,64.73v-.99c1.38-.16,2.38-.69,3.07-1.57.7-.89,1.87-3.31,3.53-7.27l11.09-26.39h1.07l13.27,30.5c.88,2.02,1.59,3.27,2.12,3.74.53.49,1.4.81,2.66.99v.99h-13.55v-.99c1.57-.15,2.56-.33,3.01-.52.45-.21.67-.69.67-1.48,0-.25-.09-.71-.25-1.37-.18-.67-.42-1.37-.73-2.1l-2.14-5.17h-14.05c-1.38,3.52-2.19,5.66-2.47,6.43-.26.78-.41,1.39-.41,1.85,0,.92.37,1.54,1.1,1.89.45.21,1.3.35,2.56.47v.99h-10.56Z" style="stroke-width: 0px;"/>
  <path d="M739.31,59.48c2.21,2.7,4.92,4.06,8.12,4.06s5.84-1.32,8.06-3.95c2.22-2.65,3.35-6.86,3.35-12.65s-1.13-10.11-3.39-12.72c-2.25-2.6-4.92-3.92-8.02-3.92s-5.9,1.36-8.11,4.06c-2.22,2.7-3.32,6.9-3.32,12.58s1.1,9.83,3.31,12.53h0ZM735.33,33.13c3.28-3.18,7.32-4.76,12.1-4.76s8.84,1.6,12.12,4.79c3.56,3.44,5.34,8.04,5.34,13.79s-1.84,10.46-5.53,13.92c-3.29,3.07-7.27,4.63-11.93,4.63-5,0-9.15-1.71-12.44-5.13-3.35-3.47-5.02-7.97-5.02-13.42,0-5.75,1.77-10.36,5.36-13.82h0Z" style="stroke-width: 0px;"/>
  <path d="M193.77,126.84c1.49,3.99,3.23,7.17,5.24,9.53,3.48,4.14,7.8,6.19,12.98,6.19,2.79,0,5.22-.89,7.26-2.69,2.05-1.79,3.07-4.29,3.07-7.49,0-2.9-1.04-5.39-3.09-7.54-1.35-1.36-4.17-3.4-8.49-6.12l-7.49-4.71c-2.25-1.45-4.05-2.91-5.4-4.39-2.49-2.79-3.73-5.88-3.73-9.27,0-4.48,1.48-8.2,4.42-11.19,2.94-2.97,6.85-4.46,11.71-4.46,2,0,4.42.5,7.23,1.49,2.82,1,4.43,1.49,4.84,1.49,1.08,0,1.83-.25,2.24-.77.42-.52.75-1.26.97-2.22h1.81l1.93,18.9h-2.11c-1.43-5.69-3.73-9.67-6.89-11.93-3.16-2.25-6.28-3.38-9.38-3.38-2.4,0-4.49.72-6.28,2.16-1.79,1.43-2.68,3.41-2.68,5.96,0,2.28.67,4.24,2.05,5.85,1.38,1.64,3.5,3.37,6.38,5.16l7.73,4.8c4.83,3.01,8.24,5.76,10.21,8.29,1.96,2.54,2.93,5.54,2.93,9.01,0,4.64-1.73,8.53-5.21,11.65-3.47,3.13-7.92,4.68-13.32,4.68-2.72,0-5.56-.52-8.53-1.55-2.96-1.05-4.65-1.57-5.08-1.57-1.04,0-1.73.31-2.08.96-.37.62-.6,1.3-.72,2.02h-1.93l-2.62-18.89h2.02Z" style="stroke-width: 0px;"/>
  <path d="M276.13,121.89l-10.08-24.44-10.11,24.44h20.19ZM238.28,144.7v-1.66c2.27-.25,3.95-1.11,5.08-2.57,1.14-1.45,3.07-5.45,5.82-11.99l18.3-43.55h1.76l21.89,50.32c1.46,3.33,2.62,5.39,3.5,6.18.88.8,2.34,1.33,4.39,1.61v1.66h-22.34v-1.66c2.58-.22,4.23-.5,4.97-.83.75-.34,1.11-1.15,1.11-2.44,0-.44-.15-1.2-.42-2.29-.29-1.09-.69-2.25-1.2-3.44l-3.53-8.54h-23.16c-2.28,5.81-3.64,9.34-4.08,10.63-.45,1.29-.67,2.29-.67,3.04,0,1.49.6,2.53,1.8,3.1.75.34,2.15.61,4.2.77v1.66h-17.41Z" style="stroke-width: 0px;"/>
  <path d="M301.43,143.04c3.64-.37,5.97-1.2,7.01-2.48,1.02-1.29,1.54-4.27,1.54-8.94v-39.1l-1.2-1.43c-1.29-1.52-2.39-2.48-3.28-2.84-.91-.35-2.27-.56-4.07-.62v-1.66h15l33.93,42.47v-29.5c0-4.85-.72-8.01-2.15-9.47-.94-.95-3.03-1.57-6.26-1.85v-1.66h20.63v1.66c-3.34.34-5.57,1.17-6.69,2.47-1.11,1.3-1.67,4.27-1.67,8.93v46.72h-1.51l-38.88-48.67v34.55c0,4.85.7,8.01,2.11,9.49.91.95,2.96,1.6,6.13,1.94v1.66h-20.65v-1.66Z" style="stroke-width: 0px;"/>
  <path d="M365.63,85.97h49.69l.47,15.09h-2.11c-1.02-4.74-2.34-7.82-3.92-9.25-1.59-1.43-4.93-2.14-10.02-2.14h-4.89v45.41c0,3.41.53,5.54,1.58,6.35,1.07.83,3.38,1.36,6.95,1.61v1.66h-25.61v-1.66c3.72-.28,6.03-.9,6.95-1.85.91-.95,1.38-3.34,1.38-7.15v-44.38h-4.95c-4.86,0-8.16.69-9.94,2.11-1.76,1.42-3.07,4.51-3.97,9.28h-2.14l.51-15.09Z" style="stroke-width: 0px;"/>
  <path d="M449.74,121.89l-10.07-24.44-10.11,24.44h20.18ZM411.9,144.7v-1.66c2.25-.25,3.95-1.11,5.08-2.57,1.14-1.45,3.07-5.45,5.81-11.99l18.32-43.55h1.74l21.9,50.32c1.45,3.33,2.62,5.39,3.48,6.18.88.8,2.34,1.33,4.4,1.61v1.66h-22.34v-1.66c2.56-.22,4.21-.5,4.96-.83.75-.34,1.11-1.15,1.11-2.44,0-.44-.13-1.2-.42-2.29-.28-1.09-.69-2.25-1.2-3.44l-3.51-8.54h-23.16c-2.28,5.81-3.64,9.34-4.1,10.63-.44,1.29-.66,2.29-.66,3.04,0,1.49.6,2.53,1.8,3.1.75.34,2.14.61,4.2.77v1.66h-17.41Z" style="stroke-width: 0px;"/>
  <path d="M510.35,140.71c.7.47,2.15.69,4.36.69,6.86,0,12.51-1.37,16.94-4.12,6.8-4.21,10.21-11.44,10.21-21.64,0-9.12-2.81-15.96-8.41-20.57-4.8-3.93-11.16-5.9-19.09-5.9-1.98,0-3.31.22-4.01.65-.7.43-1.05,1.39-1.05,2.87v45.15c0,1.45.35,2.41,1.05,2.87h0ZM492.64,143.04c3.2-.34,5.3-.92,6.28-1.73.97-.83,1.45-2.91,1.45-6.24v-39.49c0-3.24-.47-5.32-1.42-6.24-.94-.93-3.04-1.51-6.31-1.73v-1.66h23.69c7.97,0,14.73,1.33,20.27,3.99,9.95,4.77,14.92,13.29,14.92,25.57,0,4.42-.89,8.63-2.68,12.62-1.8,3.98-4.49,7.34-8.09,10.09-2.3,1.73-4.67,3.04-7.13,3.95-4.49,1.67-10.01,2.51-16.56,2.51h-24.42v-1.66Z" style="stroke-width: 0px;"/>
  <path d="M580.83,85.97v1.66c-3.37.22-5.56.8-6.57,1.7-1,.92-1.49,3-1.49,6.27v28.39c0,4.66.63,8.28,1.89,10.88,2.34,4.74,6.79,7.11,13.34,7.11,7.17,0,12-2.42,14.46-7.29,1.38-2.7,2.06-6.9,2.06-12.56v-23.1c0-4.83-.57-7.85-1.71-9.09-1.16-1.23-3.32-2-6.53-2.31v-1.66h20.34v1.66c-3.41.37-5.63,1.2-6.67,2.48-1.05,1.29-1.57,4.26-1.57,8.91v23.1c0,6.13-.94,10.91-2.79,14.35-3.42,6.33-9.95,9.49-19.56,9.49s-15.96-3.12-19.4-9.35c-1.86-3.35-2.78-7.77-2.78-13.27v-27.74c0-3.24-.5-5.31-1.49-6.22-.98-.9-3.13-1.49-6.45-1.74v-1.66h24.93Z" style="stroke-width: 0px;"/>
  <path d="M619.15,143.04c3.23-.34,5.33-.92,6.29-1.74.95-.81,1.43-2.88,1.43-6.22v-39.49c0-3.15-.47-5.2-1.42-6.18-.95-.96-3.04-1.57-6.31-1.79v-1.66h24.8v1.66c-3.23.18-5.4.69-6.5,1.6s-1.65,2.82-1.65,5.76v42.65c0,.99.16,1.76.5,2.32.32.56,1.04.92,2.17,1.06.66.09,1.35.13,2.08.16.73.04,2.11.04,4.11.04,7.81,0,13.1-.65,15.85-1.94,2.75-1.32,5.41-4.63,8-9.98h2.22l-4.3,15.38h-47.28v-1.66Z" style="stroke-width: 0px;"/>
  <path d="M714.16,86.36c3.35.95,5.21,1.42,5.62,1.42.83,0,1.62-.22,2.36-.68.75-.47,1.26-1.2,1.55-2.17h1.84l.82,19.94h-2.02c-1.17-3.96-2.71-7.15-4.59-9.58-3.6-4.57-8.46-6.86-14.54-6.86s-11.18,2.47-15.09,7.37c-3.91,4.91-5.85,11.68-5.85,20.28,0,7.92,2.05,14.25,6.16,18.98,4.1,4.71,9.29,7.08,15.58,7.08,4.57,0,8.75-1.09,12.58-3.3,2.19-1.24,4.62-3.12,7.26-5.63l1.62,1.64c-1.95,2.48-4.36,4.67-7.26,6.55-4.92,3.18-10.26,4.77-16.01,4.77-9.44,0-16.93-3.06-22.47-9.15-5.12-5.63-7.68-12.67-7.68-21.1s2.71-15.9,8.11-21.75c5.69-6.16,13.11-9.24,22.23-9.24,3.18,0,6.44.47,9.79,1.43h0Z" style="stroke-width: 0px;"/>
  <path d="M731.45,143.04c3.23-.34,5.33-.92,6.29-1.74.95-.81,1.43-2.88,1.43-6.22v-39.49c0-3.15-.48-5.2-1.42-6.18-.95-.96-3.04-1.57-6.31-1.79v-1.66h46.69l.29,12.69h-2.22c-.75-3.9-1.87-6.43-3.35-7.58-1.49-1.15-4.81-1.73-9.95-1.73h-11.97c-1.29,0-2.09.21-2.39.64-.31.41-.45,1.2-.45,2.35v19.82h13.55c3.75,0,6.15-.56,7.17-1.68,1.04-1.12,1.86-3.4,2.49-6.81h2.06v20.5h-2.06c-.66-3.44-1.49-5.72-2.53-6.83-1.02-1.11-3.41-1.67-7.13-1.67h-13.55v21.98c0,1.76.54,2.79,1.65,3.12,1.1.33,4.4.47,9.91.47,5.96,0,10.34-.65,13.18-1.97,2.84-1.32,5.38-4.51,7.65-9.56h2.44l-3.99,15h-47.5v-1.66Z" style="stroke-width: 0px;"/>
</svg>